<svg width="348" height="75" viewBox="0 0 348 75" fill="none" xmlns="http://www.w3.org/2000/svg">
<rect width="348" height="75" rx="4" fill="white" fill-opacity="0.9"/>
<path d="M91.744 45.664V18.4H85.12V52H104.56V45.664H91.744ZM123.875 28V30.832C122.147 28.672 119.555 27.328 116.051 27.328C109.667 27.328 104.387 32.848 104.387 40C104.387 47.152 109.667 52.672 116.051 52.672C119.555 52.672 122.147 51.328 123.875 49.168V52H130.067V28H123.875ZM117.203 46.768C113.411 46.768 110.579 44.032 110.579 40C110.579 35.968 113.411 33.232 117.203 33.232C121.043 33.232 123.875 35.968 123.875 40C123.875 44.032 121.043 46.768 117.203 46.768ZM149.89 28L144.562 44.128L138.322 28H131.554L141.394 51.232C140.242 54.448 138.514 55.888 135.106 55.84V61.6C141.202 61.936 145.282 58.912 147.778 52L156.514 28H149.89ZM161.355 42.544H179.451C179.595 41.728 179.691 40.912 179.691 40C179.691 32.944 174.651 27.328 167.547 27.328C160.011 27.328 154.875 32.848 154.875 40C154.875 47.152 159.963 52.672 168.027 52.672C172.635 52.672 176.235 50.8 178.491 47.536L173.499 44.656C172.443 46.048 170.523 47.056 168.123 47.056C164.859 47.056 162.219 45.712 161.355 42.544ZM161.259 37.744C161.979 34.672 164.235 32.896 167.547 32.896C170.139 32.896 172.731 34.288 173.499 37.744H161.259ZM187.806 32.128V28H181.614V52H187.806V40.528C187.806 35.488 191.886 34.048 195.102 34.432V27.52C192.078 27.52 189.054 28.864 187.806 32.128ZM201.145 42.544H219.241C219.385 41.728 219.481 40.912 219.481 40C219.481 32.944 214.441 27.328 207.337 27.328C199.801 27.328 194.665 32.848 194.665 40C194.665 47.152 199.753 52.672 207.817 52.672C212.425 52.672 216.025 50.8 218.281 47.536L213.289 44.656C212.233 46.048 210.313 47.056 207.913 47.056C204.649 47.056 202.009 45.712 201.145 42.544ZM201.049 37.744C201.769 34.672 204.025 32.896 207.337 32.896C209.929 32.896 212.521 34.288 213.289 37.744H201.049ZM240.075 18.4V30.832C238.347 28.624 235.803 27.328 232.299 27.328C225.867 27.328 220.587 32.848 220.587 40C220.587 47.152 225.867 52.672 232.299 52.672C235.803 52.672 238.347 51.376 240.075 49.168V52H246.267V18.4H240.075ZM233.451 46.768C229.611 46.768 226.779 44.032 226.779 40C226.779 35.968 229.611 33.232 233.451 33.232C237.243 33.232 240.075 35.968 240.075 40C240.075 44.032 237.243 46.768 233.451 46.768ZM278.858 18.4V38.896L264.458 18.4H259.418V52H266.042V31.456L280.442 52H285.482V18.4H278.858ZM294.499 45.664V18.4H287.875V52H307.315V45.664H294.499ZM321.206 18.4H308.678V52H315.302V40.96H321.206C327.686 40.96 332.678 35.968 332.678 29.68C332.678 23.392 327.686 18.4 321.206 18.4ZM321.206 34.768H315.302V24.592H321.206C324.038 24.592 326.102 26.752 326.102 29.68C326.102 32.56 324.038 34.768 321.206 34.768Z" fill="black" style="mix-blend-mode:multiply"/>
<rect x="16" y="44" width="51" height="9" rx="4.5" fill="#3130DF"/>
<path d="M16 37.5C16 35.0147 18.0147 33 20.5 33L33.5 33C35.9853 33 38 35.0147 38 37.5V37.5C38 39.9853 35.9853 42 33.5 42L20.5 42C18.0147 42 16 39.9853 16 37.5V37.5Z" fill="#F9A712"/>
<path d="M42 37.5C42 35.0147 44.0147 33 46.5 33V33C48.9853 33 51 35.0147 51 37.5V37.5C51 39.9853 48.9853 42 46.5 42V42C44.0147 42 42 39.9853 42 37.5V37.5Z" fill="#AF5FFF"/>
<path d="M55 37.5C55 35.0147 57.0147 33 59.5 33L62.5 33C64.9853 33 67 35.0147 67 37.5V37.5C67 39.9853 64.9853 42 62.5 42L59.5 42C57.0147 42 55 39.9853 55 37.5V37.5Z" fill="#F0516C"/>
<path d="M16 26.5C16 24.0147 18.0147 22 20.5 22L46.5 22C48.9853 22 51 24.0147 51 26.5V26.5C51 28.9853 48.9853 31 46.5 31L20.5 31C18.0147 31 16 28.9853 16 26.5V26.5Z" fill="#5FA8FF"/>
</svg>
